# xmcd
# 
# Track frame offsets:
#     150
#     14680
#     39077
#     61750
#     82750
#     104590
#     124892
#     159520
#     180792
#     206030
#     223672
#     248377
#     274977
#     287160
#     310190
#     318252
#     330190
# 
# Disc length: 4733
# 
# Revision: 1
# Processed by: cddbd v1.5.2PL0 Copyright (c) Steve Scherf et al.
# Submitted via: BonkEnc v1.0.6
# 
DISCID=df127b11
DTITLE=OSCAR PETERSON - WE GET REQUESTS AGAIN
DYEAR=2004
DGENRE=Jazz
TTITLE0=Fly Me to the Moon
TTITLE1=Satin Doll
TTITLE2=The Shadow of Your Smile
TTITLE3=Stella by Starlight
TTITLE4=Night Train
TTITLE5=Liza
TTITLE6=Maidens of Gadiz
TTITLE7=Alice in Wonderland
TTITLE8=Girl Talk
TTITLE9=Something's Coming
TTITLE10=Wheatland
TTITLE11=Waltz for Debby
TTITLE12=The Days of Wine and Roses
TTITLE13=Autumn Leaves
TTITLE14=Billy Boy
TTITLE15=Take the "A" Train
TTITLE16=Hymn To Freedom
EXTD=YEAR: 2004
EXTT0=
EXTT1=
EXTT2=
EXTT3=
EXTT4=
EXTT5=
EXTT6=
EXTT7=
EXTT8=
EXTT9=
EXTT10=
EXTT11=
EXTT12=
EXTT13=
EXTT14=
EXTT15=
EXTT16=
PLAYORDER=
